<svg xmlns="http://www.w3.org/2000/svg" height="6rem" width="6rem" viewBox="0 0 934.5 767"><defs><style>.cls-1{fill:#fff;}</style></defs><title>Asset 1</title><g id="Layer_2" data-name="Layer 2"><g id="Layer_1-2" data-name="Layer 1"><path class="cls-1" d="M176.67,357.5a15.21,15.21,0,0,1-15.17-15.17V283.67a15.21,15.21,0,0,1,15.17-15.17H284.83a3.17,3.17,0,0,0,3.17-3.17V197.17A15.21,15.21,0,0,0,272.83,182H15.17A15.21,15.21,0,0,0,0,197.17V544.83A15.21,15.21,0,0,0,15.17,560H272.83A15.21,15.21,0,0,0,288,544.83V360.67a3.17,3.17,0,0,0-3.17-3.17Z"/><rect class="cls-1" x="329.5" y="224.5" width="171" height="89" rx="12" ry="12" transform="translate(684 -146) rotate(90)"/><path class="cls-1" d="M444.88,91.5H385.12a14.66,14.66,0,0,0-14.62,14.62v17.76a2.63,2.63,0,0,1-2.62,2.62h0a7.4,7.4,0,0,0-7.37,7.37v31.26a7.4,7.4,0,0,0,7.37,7.37h4.63a2.55,2.55,0,0,1,1.76.69,12,12,0,0,0,8.24,3.31h62.38a14.66,14.66,0,0,0,14.62-14.62V106.12A14.66,14.66,0,0,0,444.88,91.5Z"/><path class="cls-1" d="M223,0H53A12,12,0,0,0,41,12V161a12,12,0,0,0,12,12H223a12,12,0,0,0,12-12V12A12,12,0,0,0,223,0ZM59.5,65.5a25,25,0,1,1,25,25A25,25,0,0,1,59.5,65.5Zm55,88h-18a12,12,0,0,1-12-12v-13a12,12,0,0,1,12-12h18Zm37,0h-29v-37h29Zm42-12a12,12,0,0,1-12,12h-22v-37h22a12,12,0,0,1,12,12Zm0-51a25,25,0,1,1,25-25A25,25,0,0,1,193.5,90.5Z"/><rect class="cls-1" x="168.5" y="275.5" width="196" height="74" rx="12" ry="12"/><path class="cls-1" d="M757.83,564.5A15.21,15.21,0,0,0,773,549.33V490.67a15.21,15.21,0,0,0-15.17-15.17H649.67a3.17,3.17,0,0,1-3.17-3.17V404.17A15.21,15.21,0,0,1,661.67,389H919.33a15.21,15.21,0,0,1,15.17,15.17V751.83A15.21,15.21,0,0,1,919.33,767H661.67a15.21,15.21,0,0,1-15.17-15.17V567.67a3.17,3.17,0,0,1,3.17-3.17Z"/><rect class="cls-1" x="434" y="431.5" width="171" height="89" rx="12" ry="12" transform="translate(995.5 -43.5) rotate(90)"/><path class="cls-1" d="M489.62,298.5h59.76A14.66,14.66,0,0,1,564,313.12v17.76a2.63,2.63,0,0,0,2.62,2.62h0a7.4,7.4,0,0,1,7.37,7.37v31.26a7.4,7.4,0,0,1-7.37,7.37H562a2.55,2.55,0,0,0-1.76.69A12,12,0,0,1,552,383.5H489.62A14.66,14.66,0,0,1,475,368.88V313.12A14.66,14.66,0,0,1,489.62,298.5Z"/><path class="cls-1" d="M699.5,219V368a12,12,0,0,0,12,12h170a12,12,0,0,0,12-12V219a12,12,0,0,0-12-12h-170A12,12,0,0,0,699.5,219ZM850,297.5a25,25,0,1,1,25-25A25,25,0,0,1,850,297.5Zm-30,26h18a12,12,0,0,1,12,12v13a12,12,0,0,1-12,12H820Zm-37,0h29v37H783Zm-42,12a12,12,0,0,1,12-12h22v37H753a12,12,0,0,1-12-12Zm-25-63a25,25,0,1,1,25,25A25,25,0,0,1,716,272.5Z"/><rect class="cls-1" x="570" y="482.5" width="196" height="74" rx="12" ry="12" transform="translate(1336 1039) rotate(-180)"/></g></g></svg>